<mxfile host="65bd71144e">
    <diagram id="n_dHNZ19xCmDsw1ztVJk" name="Page-1">
        <mxGraphModel dx="1334" dy="654" grid="1" gridSize="10" guides="1" tooltips="1" connect="1" arrows="1" fold="1" page="1" pageScale="1" pageWidth="850" pageHeight="1100" math="0" shadow="0">
            <root>
                <mxCell id="0"/>
                <mxCell id="1" parent="0"/>
                <mxCell id="68" value="" style="image;html=1;image=img/lib/clip_art/general/Battery_100_128x128.png" vertex="1" parent="1">
                    <mxGeometry x="20" y="315" width="230" height="330" as="geometry"/>
                </mxCell>
                <mxCell id="69" value="" style="image;html=1;image=img/lib/clip_art/general/Battery_0_128x128.png;rotation=-120;" vertex="1" parent="1">
                    <mxGeometry x="480" y="565.01" width="234.33" height="172.5" as="geometry"/>
                </mxCell>
                <mxCell id="70" value="" style="shape=actor;whiteSpace=wrap;html=1;fillColor=#a20025;fontColor=#ffffff;strokeColor=#6F0000;" vertex="1" parent="1">
                    <mxGeometry x="290" y="345" width="220" height="300" as="geometry"/>
                </mxCell>
                <mxCell id="71" value="" style="shape=stencil(jVddcxsxCPw1fmUkkIT0nLb/IzNxGk/TOOOkX/++XF3ZBvu2fbs4tydYlgVt5O7t6f51u+H09n7Yf9n+2D28P23kw4Z59/K0Peze7WkjHzdy97g/bD8f9t9eHo5/v94vby5PX/ffly/8POJaJuEFxenX8RfOxOnPL5+OgOfdywWgMuXkAUx9rANKolE8oFLXdQArSXUAYVIQkgGqz6FUGrwOECX2IdVCFZxQOuXmAI1JMmBpkPgTmlIv64A2iH3StVNp6wA1Wn0dSpulvH1Co8ZXtIIcWqHkk2YLqQIA08geIFRR0jJJnIDcYR1apTw8QKgDllon6R6Qpn5v08pRS0oNkKQ6u+VUaGogoJ6nMs/fF8Bpb5R9AoMaiL+PyfgFQ3+/cBMwMjUvvKykQEeDiX0NzABU4AkSAMYpcAzLIfkcTKkJASoVf4JU2DxWheyFZ5aApK3WWxoBSHiaSYOJmTAAS+YPGpKW2eFr7amhPQcN1AsmBIlGzMgAhFKw+jR9cC2kEvq5kuCkYz/b9AHiM1qDJ3VioG6ts3vP7dlR+6RY5zan1+33y3T1czxQ2uZvNSaMhuECKFcAUIOcUqyaKQ91zxiz30+jJ1EHuhjWvmG4FVjmIZP0E0tpKmXN9WpwPfNlcIJaM3ghWVYNzaocC3dB3O0d4GrLGCZ3ABCJpbO0FMRk3RU6Wv+hvkhrww1tpHsDsEIjZVwrKc8dYiUe9t+3UZJAdy6rpu82PP6lxWVV5iy6XbIRh2eG/rWsXD4eYwCJKM3N9+J9ZNkWbgvvV+SnNRYs441Npxme+RHAv21H6guMx2Y77R7n5aUjfmwgBbdLsGUMEALKjGdajxVYJg6QhFFUfQlMo3BHraRBQwOOHCtyC3M5Qe9armBhbcZXsP+4s9nD+cb3uHt+Pl4YL/8fb4j20/F2KR9/Aw==);lineShape=1;" vertex="1" parent="1">
                    <mxGeometry x="359.71264903560245" y="380.77941302542195" width="27.193875152665896" height="25.605363400946572" as="geometry"/>
                </mxCell>
                <mxCell id="72" value="" style="shape=stencil(rVfbbtswDP2avBKSKFHSc9f9R4Gma7CuKdLs9vej4ckraft0A/bmODrm7fCQOvDN6+Pdy/GQwuv1cv58/H66vz4e+MMhpdPz4/FyuurTgW8PfPNwvhw/Xc5fn+/n3y9308np6cv52/SFHzMuB6ptQqXwc36TKrX5zccZ8HR6fgNgppAMgCNV2QckIekGkCNJAYDsLRSmVgGgU6kGIEwdADToYF2SRhUA1AHOBlATtbwP0O9FtoBMHIEFjSFalzJVBoBIqdgsJcodBJ0pBlu4Th1Y4EbdBp0aCQBoWl3QyqUAssSFinVJyRJAlpRq2VY6MQmiRlsBAiXM1mZdikLxHXrbLMUIuaQuBVvpOui7HXMYn1vqRh3UmTOJbR9NGsppH/GN82EQZbvKaj7584h3WgKXURIgMEpjx6IM/S/aJ9afNrp7+3yhZps/ptHde4BiHVJK/Da5pxbiNDVAiSyBig1h0kDgUhZiG4PSMAGXVHJdkqbWRKzTv1etWRCN0spCpgLqrKrNTi0iFDD1OLrCVWxBfFojUwICphZcWtvg+l4I1bZygdTT2ZmcolJE+lhJbBECMQg4Jz+mwqjifzk/TUlH7DzkchOgQ8/Jr0p+BrO/rQReqZ5B67Q2KrqUQMZg3AT0QtHGIGoBkCKG4FuhquaDVujVK1gP1ACPmnjJ7g1qcI1+43nj5bbEiFf5vhRzTzHY5kkzJ4Cs03Igq6hRYlci1lQxgIU6RHSpQx39tO2R/75UWIZVnQvWyEjRbmC5QF4o9W1GdVQjqqpaOaqmd1ZtHkvpQosMN2fdp5q1EJcG3FsuorMQ4JrKshqeYSx9u1tn9IAGsqpEdd2mMSCi6gITXNAJLsK6OQv7tKJCKw/cXFCuF7QjiR8MUbsTUEMBbhYqezughrpUVpszXPOWrWsB6HBDWdIFYLWTCHLpX6+efwHQhz833YfT09N8UX77v78Z66v5Vs23vwA=);lineShape=1;" vertex="1" parent="1">
                    <mxGeometry x="409.8401080497299" y="381.4267929146629" width="27.274728633311724" height="29.59729736693461" as="geometry"/>
                </mxCell>
                <mxCell id="73" value="" style="shape=stencil(rVfLbhsxDPwaXwlJFPU4p+l/BIjTGHXtwHFff19uDW2W3OwEBXpbezUrkTNDUju+e31+eNnvUni9Xs5f9z8Pj9fnHX/apXQ4Pe8vh6s+7fh+x3dP58v+y+X8/fR4+/3yMK2cnr6df0xf+HXDCXGcQCn8vv0RKfe/f3y+LT8eTovljaZXi+WFCm8vj4lStp9nigkAKjW7QQpU4zYgJYpsAYVSA4BK1e7AiSqIgTOxWEAnqduAHKkEA8iFYgGA7mOQBLMkhUK1gEIZBF0Ssd2hBGLAc6mUrC70Ew0EXSNJsQDNG4ihFmruSEwd8NBmZS5iyAIAQmJjEKYCtNQjBcd0ppoBIPkssR4JZKnrAWyWVI4NBN2F0gqApNFXaVXP5gAAK0uzUgnS2jslKz4u4xNbgNasHyJkWgHd7pAbBaBWBTjxSR5UbgXteBD1IDBQr8MuCz90tIMMuyz80EER6NkzXYQCUutcthYGCigGNVD2QTMCBBL2aWWkpTBoWhDHyA9hFMYZoJbCO1RnUa18KK2RqhWfyhuVe7VotDuogQTxkH1DmSyKqkYZhXEBqCgGfW3TqmWG0ZHakNqikAm2qNOS9jgk7xiU6lWTC9jUjjmZW/cWILjyXUdj/T+ApjFaQKuD/K2O0m0MqpYKHKQ9q1iqp3ILtFGrb9SLTL+P0DpkxdExdUX7wepMqFNrWREXtQzJvz+eVJ9XdWEDR5JIsXsiBASd50Y+AxL0HIu3UBUqoKVMprf6LrgMTIOozVKJsKXE4j03NS2wgw7T1VmuQjGtmlwOlEDM2Y8OOhkLGqUpuDpWhsffD2AM5vP6DGfKQMW2UN0RdRONzjIQOxxygz+/UhKB6lYlTxlBGgqjlc02+OD44kaMUQs2shndGAb7mjrQfj1CrtK4dY3lAV4w2J8dF608Pva2nIGQ//GS+uFyfXi7Dz8djsfbdXr53t+f9a/b3Zvv/wA=);lineShape=1;" vertex="1" parent="1">
                    <mxGeometry x="360.73770327931334" y="411.974031972115" width="75.38006475580431" height="19.65916219563084" as="geometry"/>
                </mxCell>
                <mxCell id="77" value="" style="shape=stencil(lVnZbhw3EPyafSV4H88+/sOA5WgRRTJk2Un+PsUsOBoWZ2rhN2mma5t9sI+aS/jw4/HL94eLtz/eXl/+fPj7+vXt8RI+Xry/Pj8+vF7f8NclfLqED99eXh/+eH35+fz19v/3L12y//XXy6/+C//ccN7k0EHe/nt7YE0r/z/4fBN/uj7vxIMJbRIPxqdz8WhsmcTTeHAiXuZfz6YI8WRSncSryfFcPJs4m+qsyf5cvpiQZnk4q53LVxPiLA97wrl8M9HN8jDXnsvjuCnPABicBcCZMgMQ3SxOBAPbHC/kRxLxhYV+thkxjEpDMtnOgGx8FYBiHAGqcSLK8Enxc4paY4UG+CTORgdvrNAAnwQCRK0hLrcmGyfcCp9QpAOSS6QGfFLn3I6wShwpOONnt0Y/InMMCCbNNsQ4HH0MyMbOcYjZVAWoJs65FKtpAgAT6wxIKF4icHErVhvAawCydb6iKZoq3BqLaQTI0ks4sZvdmqqMA04cqUbqSPcTz5HOW/4eAwofKeOWizKTGt/pjPQWABzAkgbcaeElHCDPN65YrQG1e06+4kelOgY00+YLVGC08BJ+j6pGQSFzAhBHqm2AaqywoZRx5TdAkxcIrylbq5O5hNdlvg81SKPxulDHjaPwHANwgQiQZfLVYtLsJTypquk27rrvT467rhu1egCaHVYdA7wpswY8UdW7bZmzATA2KQ1ptPENgC4qIt3KYkOSRaA1nmXwE05kKwC5MSCKbAWgeQY0ocFZtOU5v1sdE9GpisAApQIAGgW6H0T29deVAap89wNkBqiO0k2c/brzwxnChkWFAhQe6Xsw1ZmWYgmAmup77kQOhLxCW7LtAGrqA8CTDeWehrjka1D5irKSGWCV0ZXLcctyFug+KQtAZ59frpBVC0TjmawbrQGr0UUZjVQjDVX20Q4oDLijgcaTdzecGr0A1BqH124B3AlcpsXv/h11S91o+gZR5+2FRt/RshQaCUijXO/rse5algB6XkcXJDf1PqY7r1vanEpXdPJEGrwsfX1WoOxzsqVgGqHCBJ1y3EBvny9ERV1QGpZ5veqNoGLLn6sAhii1XZZlb8KYpkofBlXKVgyCassvgd2KUVNd6gKv0+i6ldvj8btyYSpJtnZsGNQgcEgJwP5KACerANYqmjayTo1Umc/J+salxMUVVqmNIAWmBbAYqTUoOV54sXqpVa5v3ASwcmKKG2W121/VJBojewkbslpSoh9tebeDZ+HWsE07uy1fAspY3HY8guooIXJnh9+ScGvwY9rZcSFJ8TlItdno7jfFSRXmpOC3oCimyMkXrezs3i+8mibiOtc4p0ZnvRS/WZnPvcOrubwcyWsNiTmpYDWZGDhbfR3E2RnlSgtB5zcVg2q5i3a2UM0aXFo7HSlMqNx0ERfVdDPTFE6P6onnN0TFiTIZeZBxURa9sPy+k1XV8/mbJBH90gvlpOeY9dFM18JQalLJ8ucSmCpcvyzQTrL7B+IqsJZJuq0hnojTlwBdQy2Pp1bOLJY5GM3/uUHgv4srRt9x8dTjvmNuxMrN0bPf7ci5E3G/eEaKx8p+l4f5re99d8Xxx/unxW/Xp6fbl8n9e/4UiUe3z5jh038=);lineShape=1;" vertex="1" parent="1">
                    <mxGeometry x="402.2088768276467" y="662.194475064819" width="188.22674714134308" height="173.09323687580445" as="geometry"/>
                </mxCell>
                <mxCell id="78" value="" style="shape=stencil(lVnLchw3DPyavaL4AF9nx/kPV1mOtqJILllO4r93M1ukh+Bub3RbjdBDkAAaDc4pfvj2+Onrwym4b2+vL38+/HP+/PZ4ir+dQjg/Pz68nt/w6xQ/nuKHLy+vD3+8vnx//nz5++unbtl//fXyd3/Dvxdca1JCRwX34/IkiK//Pfj9Yv90fj7aF8l+sVepgdgn0bTYF9FG7KPUuNg30ULs/Vh+2HtPHapN0uqQV4lkhVrEG0ARlwlAJecV0KQxl4K4ssYgSIu3AWWeyQQkaeRUS5bmVkATx1ZQUV0AEU4qAeDfdQUodSk3G+hYpHkCKPZY1UlhgCRp3YNGicylKMnkduIueUnGpSrR3QakJnnNpeQkkdRIRaoBhFGA1wFZ/FoPSUfCXweo3TReEdkKYcR1AhA4khrJS16TD8eg7JScxDVw2Q2WugrQJn7NJUSmEhZDmNy66RzoHjRLXSsOyVIJayBzigEozVZVe0o9f9mmkcxrauRMk0/9IJUJAJGRetA9DoUea6ySzQp1FO11AI7VbJrTPUjFxKHASbZCsAVUvAS2B2ddArUFkhqh2g5UIl0h5EEqE4AORMgY5G64taCrMkAUNStkSQzgpayBK4UGLjjbsgqOgQB8HR4PQHU0+XweqTYBnrK3TyMRJgBUSQLno62HippmKwRJxqUknlQcpEhYC6hmvgc3muwEIA5MnAzWmvZ4QnKv2NRrvHw22oPeKsQ+2WqDnmNyUjd/0I4YrYpbaw36kimlOHJs2hcegLH6tEfHJiSMADdr30hGuBGdKQ0dQk4BeXOILxA3h9gGnPjt/SxgbsjGaT85/5a9s/ZMeG68goAxqnMSjD+ZSjZnlTPsWZd1to3DPtAEMlTd7RkvbvHKojThjICEPStIvxVkod0MGmGzZ+PUbl/v+G/9aTT/vRX9sFeSn/t5zjnjVrz2Aibx3fMB9uT83fD2YF/elc9tiLD/WS+VxutaPQZej8afcqfeLZ+U4eEtvtrqhb//ffbeDr6Nj0NhqJhjAyP5CcVgGpin8VWrLu804GQbcG/wxP+8CYJC58Vq8wcKJZD9NgnGXrlmcnYIh8jKZAN+m1Ig4yKreMxBqyaAUGQp7TGIrTXfpSjjrDkQH8Uu28MmsyCnE2PpZpUlBHtkaTqHmMNI4Emd9RslA9DRqq4DMI+up4Sxht0AIfVMpDFpsWsv5J69GnT0WDGaGQCmxcKKM1j27fMoA+gGQOAYII+bjMMQruSUMCKHbcxnDS02OwdlpRWNMV/XeshxNK3rgGA5LAfaA1VtUwCAiSJNtitkT+OgUzQdboCY7NVy5crIk1zSOq6hD5dSjDUUOnqNQ6pU2aVN6yd+3ZKC1S4pSSGpkbYBNimNA96X9ttEdjlYLM2keT1y64LT6CkcdCH10OO6pgZizxp0z801vZGOjPlQLqYlqqd3G/1WbD2lyIdqsFBYXQItsCEKxGhoJkaqykG9RjaDCwPZdG8fq0uB6/7e0dbAoQEwIYAmawoIPckzpaF2NPKV1gOUiBnGPXiEAeqQ4hMQ7n08MmTMh+uuBU1PpN0BWtMwa6LDeNvUW+D+NEvEjh5Qn+2LsWdfsvrs4a0990fz++zz9n728bENLvllH9h5Nls2blyM3rJv9jwZPXb7auyZ4jlc9swM5Wp7W8Dzr6fNkiO/rusHpMaedf53fy2+a48fvz5Nfzk/PV2+bB//bz9l49HlM3j8+BM=);lineShape=1;" vertex="1" parent="1">
                    <mxGeometry x="122.73184014270714" y="669.2179321518443" width="287.55979789693527" height="150.39137931509117" as="geometry"/>
                </mxCell>
                <mxCell id="79" value="" style="shape=stencil(lVnLchw3DPyavaL4AF9nx/kPV1mOtqJILllO4r93T7Y4GYCzrfJttcvWECC60eBc8odvj5++PlxS+Pb2+vLnwz/Xz2+Pl/zbJaXr8+PD6/UNny754yV/+PLy+vDH68v358+3v79+2lZun/56+Xv7D//ecC1JzRsqhR+3b1Tq+O+L32/rn67Ph/V1SO1mfRctZH2VYNfHLDESQJJoNxSbDL0PKF1CNICUpCUCyNKbBTRJ7T5Ah2gygBylkS2pitqgM9LAAEFStYBBn5CLDHdsWXImAOy4WECVEu4DUpVqgy5BtBJAmoWzA7IMktY4ZNgtlSaF1BIKQW2WtmIhJx2RdbulWqR3AigSbWm0KIltqcyfd0CVTLKEGBwfephpOE9rlBAsQGkMqUhVC2j0CSiNYrM0wkzDOaBLDB7ASgO1WYLfUmeAJjX6oNk5oDZH9GlVEkNRKRbQdqU6B7SpczsAMkNiqEiiBUA7M2FcBYMt46rKYIA6N7ADgnSmrWP+fGAcOziEqPbgwOnCACrNljfEk2krsq62+CCenShfQzG7J/CgG4J26l3pOXRIpc1STrPFnAOyJMs4NBRlT1DP6dipegPgOhCkrZFq7YsIQKky6esgZHFPUMks6OG7KBp7JRQdyRMIACUxDJ3t4wDoRO5Hkzh8DJXU0uhThQ5ZYsU3llqCnrNaGkuPw0l3wgcAXENJgR4cgu62ltAxmIMbRZq1DlvnZkGjvC3jEiwcAwTvBDYAK+++EGi3peeAKrEvQZO0gkA+aKSVA4IjEA6OlDcAvvjazNs9irr+sBUfKW8E3Z0z1unR7lE0LIyjBIITWMz6OxSN1QOoCFTvBDaZYVuCMHafJaatIJBzM5tUEj7EEM7UmJm+X0ZgU82RtE7Hfy9sV685TI7c1T43QSilEGTADzWdH12eE8neeNMcQu4JvmM1bB2TAeiG8zMlcgr1Kb47oNCxCZwbdktl0JEDrV0tACPHYAZo+D5a4fhJ0G2RY4wcnQHSNLZH50qkrPZZ/0dvTDhXq9c+pKGRLcG5Ou2DnWBDPrIebZYgPYk8oSxeANKj5Amb7bQxgCHMuWr0MYx3RvDkzfRBF84nM50isT+ii5KooSrBEmLwISWidFwQac7958W0TKOddgj1kx8YVUiS4rRT+3r0aXIKYeZjr+1Gx+lFiDd2kLII/lID5GA2IPrug5GMDUz7JcxRX8j6sgxkZer4uUT6yzEoZGStapk0tNK5OI7pNg8qr+SEEUJynarTI0MMbg7IhRY1GpmzMRliQTr61siWeawQnmlerhAzvdVEI8vOHQ5+exBnbz34Hkacsl9U7Uyml2mos+FaoRTWFNDGLBMinXwg8dWvZ3dE4Emxgh2oHanFOyTud9Cj3GAVaJsFz9Oynt2tLH08UGK2ZeYJ84LpfH306yO9Y9h0zTlt6tbablP2kp5Sdr4+L/6Rx5sXUtJb+l99z/D+enz4/6XGl+vT0+2dyPF3/xIEX91eoOSPPwE=);lineShape=1;" vertex="1" parent="1">
                    <mxGeometry x="343.5340110949053" y="698.2300029005353" width="51.59208187756775" height="84.89613525262172" as="geometry"/>
                </mxCell>
                <mxCell id="80" value="" style="shape=stencil(rVjZbhsxDPwavxKUqPM5Tf8jQJzaqBsHjnv9fbl1tTW56zEK9G1taVY8ZkhqN/Lwvnt6224iv59Px8/b7/vn824jHzYx7l9329P+rE8bedzIw8vxtP10On59fb78fnuadk5PX47fpjf8uOA65TyBIv+8/NEitfj7n4+X/Yf969X+UKhXC0gUy21ArJTZA1K+DZBGIVgAUwUnpEDJnlCFQgMnRJJiAKVSrcCHRKFbQBxxWwcIVTGAHKgjk5iaNSnl4dW605GiNSklaFLWvGYPSHIbUGSk6Qog4ASNemoWEKmAxNVKyfogiRhEqWbK0QBiJgGAUsbyDAjEwKRcqAQPaAEkTult9aCEDyBxItTEA6AemII7oVAFJ+hyt1xS/nagaV3OyQJUIcBppbczKXQKgEv6vm4zHTJVbBLbTIcI2apOB+tDH5lc368GW3ZrIgExtGZUa1AZ5F3fX7wYCmVgT2JicfYUEKAkxMH5i0ih5SSwD+ifrK8DCvEiZQ0Bsi9hSooIiJ2SLzBKk4RiFImtDyp/Rlpro6xfSwf4INk7PYkT0SL4VqIARq2kUs/eB5RoXY5OnALDqsuu4UameEeclkra5NudE6xJQaAYpirt1MxDHuuANoI4zwBDrrfS4DpJGQ34v+xPdZFm2J2zmmsdZkjU0n1T0PgAnupEFC2LBIq585DuVQJQwe7VTwt3LArMC3G2MSquH9E9QAc5xNOefQlOHY5tbW5K8xRWKSKA+mhpVwJUQg1UbJh0akLjQu6jE88APFSpi35WTdAH6YvR804Zjr4T6qzKINW63LoPKxrbJjWwjxIc24K/lWigBTitAMclTSWDipSL53fTfouc5kW/FThgKJmzTVy/00q0DLsJpo9x9+Ylw01hjMuMlulo2dfboNe619RtWHuBU1JaDGEZ1gC9H7DfzyCoYWjlKgmony/03CMsMcskM2VA1EXNa40a3J9sfJR1EaRY/XXv1xqIplrfmBu+483XrXm/wLtI9m1q+loA4q+a6n5/QSX+H79G3N+vD38/fbzsD4fLl5Prdf+pRP+6fGaRx18=);lineShape=1;" vertex="1" parent="1">
                    <mxGeometry x="389.5180558301513" y="698.5942448745623" width="35.35627570293116" height="38.91642966062449" as="geometry"/>
                </mxCell>
                <mxCell id="81" value="" style="shape=stencil(lVfLchpBDPyavaqkeUpnx/kPVxkHKgRcGCfx31sED0FaVi7fll31jNRq9QxTvntZPzyvpoQvx8P+5+rP5vG4nvK3KaXNbr06bI76NOX7Kd897Q+rH4f96+7x/Pv54RR5evq1/31a4e8ZRxlaOqESvn28gY7/Xnw/x283u6t4/UzFxHcobTk+Ewja9RtgXgYUgtoNIGXgYIeqGYkB6J6FlgFtllJBwLIM6AmSA3QQWQZwArQp1QolYFUYEltWCxQOADK6dAHIZwCpBsAFOAYgGYAgUECrNBDbOCnQgk7rZ7QpidIadFoTqA6gNAQAbsDFAzhIiTNkOw3aGeoBACEXX/QH0be1pJ2e0VpTAOhAVhpcR5JLgJy9NCQCMDRLq4qPo6LJS6NjaBoqNWoG0DpwwBJ36FZLrUGLxEfDha52oFh8bItuMni7Dejel3oGjGZa13O0alVB0YQ4Fry0WrcIGqFbFDfUDCVotRbRLU2SIQXWJxXIpqRLYNwIv4OMEbndaga0+r7iYUlNrmodUglyUr0mB2hjqJYmgt2QpsHDFwBBSl1TskOqVUU2oIeWa0Rvw0luH4voU9KJKIH8ymyqK4czl3HY++VYFEiBHevdoVlt6MHbgj4Q+UPrdLRHlwfvZKkOdd3OaPjc1V0jsnvyykux8SEUuz6p74XxzgBIKwqGR+MtoRRffdDzw5CDdHSWbYNreMe4WMmlW6EFz6yFIAfqmZ2DGOauriMuPDIVJa765aNav3pv/jxeH/5f0p822+35jn/93V/q9dX5D0G+fwc=);lineShape=1;" vertex="1" parent="1">
                    <mxGeometry x="349.47936237992167" y="738.2182057060563" width="30.32216593796079" height="20.774073864823492" as="geometry"/>
                </mxCell>
                <mxCell id="82" value="" style="shape=stencil(lVbLctswDPwaXTEE3zin6X9kJk6tqWtnHKdt/j5wVakCYm0nN1rGkgR2F+CQ7l72D8+7IYaXy/n0ffdrfLzsh/RliHE87nfn8aKrId0P6e7pdN59O59ej4/T7+eHa+R19eP087rD7wnHlNoVFMPb9KFn6unPl69T/GE8ruMDtWIALVKt24CYqHQDKIVEtgGJqWUDyIm4A0D3OcRKLWwDcqDEBsCJQgGASJxslaiBFHKlLjZnCrwdXzIFWyM9EMTXSFJNvGYE7qMUFXHxIW/Hd/b7MwWwvwTiYOITZSAiqcRWRFqwCOKFsq2PylAAwwpwGuJCEWSsNxKbAQssqTBFWyLlTEAOXUtiRaeiyEB0LRN/lDU4oWYq7AEVVEmNmLO/EiPjtDnFVdIJWFON0yyAO8whL0JeAJoVuhLPvWEljb91uw1QK1qmK+wuhSk7okkAbUWoW9oC1HZVnXkvB5Bw6yTJxRcg1N6897UZIK9lr9MCRSR97rVzvJoV3IdD8ARo90Xd9PMISbOzln7U5g5yu0jFN6SCWWuJqmVZ3dfAGCx9HqvLCAmQh9yp2iuJEgdOUGG7FqZUokGr1hFrf2lwDGoRHQ9KfgV9Xke507Y2ZgRQrSWb9Ir82+JQ+0R/RAOzU6VTo0+iIW14/2iVIuJh7ldLPB49TNX6TXnugIXg3wo6fSNI+IN5OvbCp1+E/43Xxb/n59N4OEyv1/X//rmqn6anbrp/Bw==);lineShape=1;" vertex="1" parent="1">
                    <mxGeometry x="355.74443809249374" y="748.015621276171" width="11.01884372753517" height="24.505591335066867" as="geometry"/>
                </mxCell>
            </root>
        </mxGraphModel>
    </diagram>
</mxfile>